<?xml version="1.0" encoding="utf-8"?>
<!-- Generator: Adobe Illustrator 21.0.0, SVG Export Plug-In . SVG Version: 6.00 Build 0)  -->
<svg version="1.1" id="Layer_1" xmlns="http://www.w3.org/2000/svg" xmlns:xlink="http://www.w3.org/1999/xlink" x="0px" y="0px"
	 viewBox="0 0 186 186" style="enable-background:new 0 0 186 186;" xml:space="preserve">
<style type="text/css">
	.st0{fill:#EE6344;}
	.st1{fill:#484848;}
</style>
<g>
	<path class="st0" d="M76.8,30.4v7.8c0,2.4-6.5,6.8-17.3,6.8s-17.3-4.4-17.3-6.8v-7.8c4.6,2.3,10.5,3.7,17.3,3.7
		C66.3,34.2,72.3,32.8,76.8,30.4z"/>
</g>
<g>
	<rect x="89.1" y="49.4" class="st1" width="9" height="33.3"/>
</g>
<g>
	<g>
		<path class="st1" d="M59.6,161.2c-21.6,0-38.6-9.8-38.6-22.2V49.4h9V139c0,6.2,12.6,13.2,29.6,13.2V161.2z"/>
	</g>
</g>
<g>
	<g>
		<path class="st1" d="M59.6,71.6C37.9,71.6,21,61.9,21,49.4c0-7.1,5.5-13.6,15-17.7l3.6,8.3c-6,2.6-9.6,6.1-9.6,9.5
			c0,6.2,12.6,13.2,29.6,13.2s29.6-7,29.6-13.2c0-3.3-3.6-6.9-9.6-9.5l3.6-8.3c9.5,4.1,15,10.6,15,17.7
			C98.1,61.9,81.2,71.6,59.6,71.6z"/>
	</g>
</g>
<g>
	<g>
		<path class="st1" d="M85.8,18.4v19.9c0,0.8-0.1,1.6-0.3,2.4C83.7,48.5,73.1,54,59.6,54c-12.5,0-22.4-4.7-25.4-11.5h0
			c-0.6-1.4-0.9-2.8-0.9-4.3V18.4h9v19.9c0,2.4,6.6,6.8,17.3,6.8s17.3-4.4,17.3-6.8V18.4H85.8z"/>
	</g>
</g>
<g>
	<path class="st1" d="M83.5,11.7c-4-5.5-13-9.1-24-9.1c-9.5,0-17.5,2.7-22.1,7c-2.7,2.5-4.2,5.5-4.2,8.8c0,5,3.4,9.2,9,12.1
		c4.6,2.3,10.5,3.7,17.3,3.7c6.7,0,12.7-1.4,17.3-3.7c5.6-2.8,9-7.1,9-12.1C85.8,15.9,85,13.7,83.5,11.7z M59.6,25.2
		c-10.7,0-17.3-4.4-17.3-6.8c0-2.4,6.6-6.8,17.3-6.8s17.3,4.4,17.3,6.8C76.8,20.8,70.3,25.2,59.6,25.2z"/>
</g>
<g>
	<path class="st0" d="M76.8,18.4c0,2.4-6.5,6.8-17.3,6.8s-17.3-4.4-17.3-6.8c0-2.4,6.6-6.8,17.3-6.8S76.8,16,76.8,18.4z"/>
</g>
<g>
	<g>
		<path class="st1" d="M102.9,78.2c-34.8,0-62.1,15.1-62.1,34.4c0,19.3,27.3,34.4,62.1,34.4s62.1-15.1,62.1-34.4
			C165,93.3,137.8,78.2,102.9,78.2z M150.5,123.7c-8.8,8.4-27,14.3-47.6,14.3s-38.8-5.9-47.6-14.4c-3.5-3.3-5.5-7.1-5.5-11
			c0-13.7,24.3-25.4,53.1-25.4c28.7,0,53.1,11.6,53.1,25.4C156,116.5,154,120.3,150.5,123.7z"/>
	</g>
</g>
<g>
	<g>
		<path class="st1" d="M102.9,183.5c-25.1,0-42.2-9.3-47.1-25.4l-9.7-31.8l8.6-2.6l9.7,31.8c3.6,12.1,17.6,19,38.4,19V183.5z"/>
	</g>
</g>
<g>
	<g>
		<path class="st1" d="M102.9,183.5v-9c20.8,0,34.8-6.9,38.4-19l9.7-31.9l8.6,2.6l-9.7,31.8C145.1,174.2,128,183.5,102.9,183.5z"/>
	</g>
</g>
<g>
	<path class="st0" d="M150.5,123.7c-8.8,8.4-27,14.3-47.6,14.3s-38.8-5.9-47.6-14.4c6.4-8.5,24.2-16.1,47.6-16.1
		C126.4,107.6,144.2,115.1,150.5,123.7z"/>
</g>
</svg>
